<svg width="100" height="100" viewBox="0 0 100 100" fill="none" xmlns="http://www.w3.org/2000/svg">
<rect width="100" height="100" fill="white"/>
<path d="M89.198 47.458C89.16 47.344 89.13 47.225 89.083 47.115C88.8847 46.6099 88.5841 46.1513 88.2 45.768L77.887 35.454C77.1441 34.7116 76.1368 34.2946 75.0865 34.2946C74.0362 34.2946 73.0289 34.7116 72.286 35.454C70.738 37.001 70.738 39.611 72.286 41.158L76.028 45H40.976C38.842 45 37.112 46.866 37.112 49C37.112 51.135 38.841 53 40.976 53H76.543L72.48 56.826C70.933 58.372 70.932 60.762 72.48 62.307C74.025 63.853 76.534 63.793 78.08 62.247L88.395 51.903C89.589 50.709 89.85 48.915 89.198 47.458Z" fill="black"/>
<path d="M58.5 58.995C56.367 58.995 55 60.726 55 62.859V73.104C55 75.521 53.373 78 50.956 78H23.011C20.595 78 18 75.521 18 73.104V24.538C18 22.122 20.595 21 23.011 21H50.956C53.373 21 55 22.122 55 24.538V34.783C55 36.917 56.367 38.648 58.5 38.648C60.635 38.648 62 36.917 62 34.783V24.538C62 17.865 57.631 13 50.956 13H23.011C16.337 13 10 17.865 10 24.538V73.105C10 79.777 16.337 86 23.011 86H50.956C57.631 86 62 79.777 62 73.104V62.859C62 60.727 60.635 58.995 58.5 58.995V58.995Z" fill="black"/>
</svg>
